# xmcd
#
# Track frame offsets:
#	150
#	15181
#	32998
#	48764
#	62193
#	75218
#	89528
#	103701
#	116971
#	131262
#	144832
#	163674
#	179270
#	194556
#	210391
#	228420
#	247668
#	260797
#	276573
#	290403
#	300844
#	319055
#
# Disc length: 4378 seconds
#
# Revision: 1
# Processed by: cddbd v1.4PL0 Copyright (c) Steve Scherf et al.
# Submitted via: EasyCDDAExtractor 5.0.6
#
DISCID=2b111816
DTITLE=Various Artist - Romanticos De Argentina
DYEAR=1900
DGENRE=
TTITLE0=Daniel Toro - Zamba Para Olvidarte
TTITLE1=Aldo Monjes - Brindo Por Tu Cumpleaños
TTITLE2=Los Visconti - Odiame Alma Mia
TTITLE3=Los Chalchaleros - La Cerrillana
TTITLE4=Horacio Guarany - Pescador Y Guitarrero
TTITLE5=Carlos Torres Vila - La Engañera
TTITLE6=Los Cantores De Alba - Llora Corazon
TTITLE7=Los Visconti - Andate
TTITLE8=Los Del Suquia - Cancion Para Una Mentira
TTITLE9=Los 4 De Cordoba - Los Dos Para Los Dos
TTITLE10=Lado Monjes - La Tristeza De Mi Mujer
TTITLE11=Jose Cafrune y Marito - Virgen India
TTITLE12=Horacio Guarany - Si Se Calla El Cantor
TTITLE13=Daniel Toro - Escribeme Una Carta
TTITLE14=Los Del Suquia - Cancion Para No Perderte
TTITLE15=Aldo Monjes - Olvidame Muchacha
TTITLE16=Los Visconti - Y No Es Que Me Arrepienta
TTITLE17=Carlos Torrez Vila - Que Pasa Entre Los Dos
TTITLE18=Los Visconti - Veneno
TTITLE19=Horacio Guarany - Puerto De Santa Cruz
TTITLE20=Chalchaleros - La Lopez Pereira
TTITLE21=Horacio Guarany - Caballo Que No Galopa
EXTD=
EXTT0=
EXTT1=
EXTT2=
EXTT3=
EXTT4=
EXTT5=
EXTT6=
EXTT7=
EXTT8=
EXTT9=
EXTT10=
EXTT11=
EXTT12=
EXTT13=
EXTT14=
EXTT15=
EXTT16=
EXTT17=
EXTT18=
EXTT19=
EXTT20=
EXTT21=
PLAYORDER=
